<svg width="803" height="804" viewBox="0 0 803 804" fill="none" xmlns="http://www.w3.org/2000/svg">
<path d="M478.06 379.2C475.9 379.23 473.78 379.23 471.62 379.2V363.05C471.62 360.66 472.32 358.32 473.66 356.36C474.13 355.66 474.36 355.34 474.83 354.65C475.31 355.35 475.53 355.67 476.03 356.36C477.37 358.32 478.07 360.66 478.07 363.05V379.2H478.06ZM489.62 342.34C491.04 340.26 492.5 338.22 494.01 336.22V322.25C491.83 321.42 489.64 320.71 487.39 320.1C486.63 321.55 485.88 323.03 485.14 324.5C483.63 324.24 482.1 324.01 480.57 323.86C479.83 322.12 479.06 320.4 478.28 318.67C475.97 318.55 473.7 318.55 471.39 318.67C470.63 320.39 469.87 322.12 469.1 323.86C467.59 324 466.06 324.23 464.55 324.5C463.81 323.03 463.06 321.55 462.3 320.1C460.05 320.7 457.86 321.41 455.68 322.25V336.21L460.07 342.34C460.07 342.34 454.17 394.18 451.4 415.73C466.39 423.08 483.3 423.08 498.29 415.73C495.24 392.08 489.62 342.34 489.63 342.34M437.74 462.71L443.07 459.96V421.12L438.49 418.19V457.56L431.25 454.01C426.7 451.77 422.55 450.69 418.59 450.69C414.63 450.69 410.46 451.78 405.9 454.01L402.19 455.84L398.46 454.01C393.9 451.77 389.76 450.69 385.79 450.69C381.82 450.69 377.68 451.78 373.12 454.01L365.88 457.56V417.79L361.46 421.06V459.95L366.78 462.7M432.56 411.27C427.11 408.39 422.35 407.07 417.52 407.07C413.54 407.07 409.62 407.97 405.27 409.93V448.33C409.62 446.27 413.65 445.28 417.54 445.28C421.43 445.28 425.83 446.36 430.43 448.62L433.82 450.27V411.94L432.56 411.28V411.27ZM399.1 409.92C394.77 407.99 390.81 407.06 386.85 407.06C382.02 407.06 377.27 408.39 371.82 411.27L370.56 411.92V450.25L373.95 448.6C378.55 446.35 382.77 445.26 386.86 445.26C390.95 445.26 394.78 446.23 399.11 448.3V409.92M332.94 379.19C330.78 379.22 328.66 379.22 326.5 379.19V363.04C326.5 360.65 327.2 358.31 328.54 356.35C329.01 355.65 329.24 355.33 329.71 354.64C330.19 355.34 330.41 355.66 330.91 356.35C332.25 358.31 332.95 360.65 332.95 363.04V379.19H332.94ZM344.5 342.33C345.92 340.25 347.38 338.21 348.89 336.21V322.24C346.71 321.41 344.52 320.7 342.27 320.09C341.51 321.54 340.76 323.02 340.02 324.49C338.51 324.23 336.98 324 335.45 323.85C334.71 322.11 333.94 320.39 333.16 318.66C330.85 318.54 328.58 318.54 326.27 318.66C325.51 320.38 324.75 322.11 323.98 323.85C322.47 323.99 320.94 324.22 319.43 324.49C318.69 323.02 317.94 321.54 317.18 320.09C314.93 320.69 312.74 321.4 310.56 322.24V336.2C310.56 336.2 313.79 340.65 314.95 342.33C314.95 342.33 309.05 394.17 306.29 415.72C321.28 423.07 338.19 423.07 353.18 415.72C350.13 392.07 344.51 342.33 344.52 342.33M405.48 350.17C403.34 350.2 401.18 350.2 399.07 350.17V334.02C399.07 331.63 399.77 329.28 401.11 327.34C401.56 326.64 401.81 326.3 402.28 325.6C402.73 326.3 402.98 326.64 403.48 327.34C404.8 329.28 405.49 331.64 405.49 334.02V350.17H405.48ZM387.28 317.32H387.32C384.6 340.45 381.81 363.58 378.83 386.7C381.81 388.17 388.01 391.92 388.01 391.92L391.19 387.91V384.34C391.19 376.32 395.42 368.88 402.28 364.74C405.73 366.82 408.49 369.69 410.41 373.1C412.31 376.47 413.38 380.32 413.38 384.34V387.91L416.56 391.92C416.56 391.92 422.75 388.17 425.74 386.7C422.69 363.2 419.86 339.65 417.11 316.13L417.05 313.3L421.37 307.29C421.37 307.29 421.43 307.21 421.46 307.17L421.45 304.84C421.45 304.84 421.46 304.84 421.47 304.84V293.21C419.29 292.36 417.08 291.67 414.83 291.06C414.07 292.52 413.32 293.99 412.58 295.47C411.07 295.19 409.56 294.97 408.04 294.81C407.27 293.09 406.51 291.36 405.75 289.63C403.44 289.5 401.17 289.5 398.86 289.63C398.09 291.37 397.33 293.09 396.57 294.81C395.05 294.97 393.52 295.19 392.01 295.47C391.28 294 390.52 292.52 389.76 291.06C387.5 291.67 385.32 292.36 383.14 293.21V307.16L387.54 313.28L387.31 317.31L387.28 317.32ZM452.48 353.91L450.4 355.76L447.69 353.64L446.18 347.38L442.4 344.54L440.89 348.54L437.12 345.7L435.61 339.43L431.84 336.59L430.33 340.57L424.8 335.95L431.05 386.7L447.88 401.71C449.84 386.07 451.74 370.41 453.59 354.75L452.48 353.91ZM373.5 386.7L379.78 335.95L374.24 340.57L372.73 336.59L368.96 339.43L367.45 345.7L363.68 348.54L362.17 344.55L358.39 347.39L356.88 353.66L354.19 355.77L352.09 353.92L351.02 354.73C352.86 370.39 354.77 386.04 356.73 401.68L373.48 386.7H373.5ZM401.86 712.33C230.73 712.33 91.5098 573.11 91.5098 401.98C91.5098 230.85 230.68 91.64 401.81 91.64C572.94 91.64 712.16 230.86 712.16 401.99C712.16 573.12 572.94 712.34 401.81 712.34L401.86 712.33ZM401.86 103.5C237.28 103.5 103.38 237.4 103.38 401.98C103.38 566.56 237.28 700.46 401.86 700.46C566.44 700.46 700.34 566.56 700.34 401.98C700.34 237.4 566.39 103.5 401.81 103.5H401.86ZM621.49 401.98C621.49 352.32 604.92 306.46 577.03 269.63V219.13H523.38C488.56 195.91 446.77 182.35 401.86 182.35C356.95 182.35 315.21 195.92 280.39 219.13H227.93V268.05C199.3 305.15 182.23 351.6 182.23 401.98C182.23 462.45 206.79 517.28 246.47 557.03C256.28 571.61 269.64 583.86 285.73 592.4L402.47 654.22L519.21 592.4C536.71 583.13 550.97 569.47 560.96 553.21C598.45 513.8 621.5 460.54 621.5 401.98H621.49ZM609.62 401.98C609.62 444.26 596.91 483.61 575.13 516.46C576.37 509.89 577.02 503.16 577.02 496.33V290.41C597.64 322.66 609.62 360.94 609.62 401.97V401.98ZM550.76 233.51C556.92 233.51 561.89 238.51 561.89 244.65C561.89 250.79 556.91 255.78 550.76 255.78C544.61 255.78 539.62 250.81 539.62 244.65C539.62 238.49 544.6 233.51 550.76 233.51ZM550.76 310.76C556.92 310.76 561.89 315.74 561.89 321.9C561.89 328.06 556.91 333.03 550.76 333.03C544.61 333.03 539.62 328.03 539.62 321.9C539.62 315.77 544.6 310.76 550.76 310.76ZM550.76 385.9C556.92 385.9 561.89 390.89 561.89 397.03C561.89 403.17 556.91 408.16 550.76 408.16C544.61 408.16 539.62 403.19 539.62 397.03C539.62 390.87 544.6 385.9 550.76 385.9ZM550.76 461.05C556.92 461.05 561.89 466.03 561.89 472.18C561.89 478.33 556.91 483.31 550.76 483.31C544.61 483.31 539.62 478.31 539.62 472.18C539.62 466.05 544.6 461.05 550.76 461.05ZM401.81 194.22C437.45 194.22 471.01 203.25 500.35 219.13H303.27C332.61 203.26 366.17 194.22 401.8 194.22H401.81ZM462.72 244.65C462.72 250.81 457.72 255.78 451.59 255.78C445.46 255.78 440.45 250.81 440.45 244.65C440.45 238.49 445.43 233.51 451.59 233.51C457.75 233.51 462.72 238.51 462.72 244.65ZM363.57 244.65C363.57 250.81 358.59 255.78 352.44 255.78C346.29 255.78 341.33 250.81 341.33 244.65C341.33 238.49 346.31 233.51 352.44 233.51C358.57 233.51 363.57 238.51 363.57 244.65ZM253.31 233.51C259.47 233.51 264.44 238.51 264.44 244.65C264.44 250.79 259.46 255.78 253.31 255.78C247.16 255.78 242.18 250.81 242.18 244.65C242.18 238.49 247.18 233.51 253.31 233.51ZM252.97 310.53C259.1 310.53 264.1 315.5 264.1 321.67C264.1 327.84 259.1 332.78 252.97 332.78C246.84 332.78 241.83 327.8 241.83 321.67C241.83 315.54 246.8 310.53 252.97 310.53ZM252.97 385.66C259.1 385.66 264.1 390.63 264.1 396.8C264.1 402.97 259.1 407.93 252.97 407.93C246.84 407.93 241.83 402.96 241.83 396.8C241.83 390.64 246.8 385.66 252.97 385.66ZM194.05 401.97C194.05 360.12 206.5 321.13 227.88 288.48V496.33C227.88 504.06 228.71 511.67 230.28 519.05C207.43 485.69 194.04 445.37 194.04 401.98L194.05 401.97ZM241.83 471.95C241.83 465.79 246.8 460.81 252.97 460.81C259.14 460.81 264.1 465.79 264.1 471.95C264.1 478.11 259.1 483.06 252.97 483.06C246.84 483.06 241.83 478.09 241.83 471.95ZM265.49 550.15C259.33 550.15 254.35 545.17 254.35 539.02C254.35 532.87 259.32 527.91 265.49 527.91C271.66 527.91 276.62 532.89 276.62 539.02C276.62 545.15 271.65 550.15 265.49 550.15ZM309.29 547.81C299.95 542.86 292.11 535.45 286.66 526.39C281.18 517.3 278.3 506.92 278.3 496.33V479.99L359.03 523.66L311.8 549.13L309.3 547.81H309.29ZM327.58 597.29C321.42 597.29 316.44 592.29 316.44 586.16C316.44 580.03 321.41 575.03 327.58 575.03C333.75 575.03 338.71 580.01 338.71 586.16C338.71 592.31 333.71 597.29 327.58 597.29ZM401.83 633.87C395.69 633.87 390.72 628.89 390.72 622.73C390.72 616.57 395.69 611.6 401.83 611.6C407.97 611.6 412.96 616.57 412.96 622.73C412.96 628.89 407.99 633.87 401.83 633.87ZM402.42 597.13L355.66 572.36L402.44 547.12L449.2 572.36L402.42 597.13ZM476.44 597.45C470.3 597.45 465.3 592.48 465.3 586.32C465.3 580.16 470.3 575.21 476.44 575.21C482.58 575.21 487.57 580.19 487.57 586.32C487.57 592.45 482.6 597.45 476.44 597.45ZM526.54 496.32C526.54 506.91 523.65 517.29 518.2 526.38C512.75 535.44 504.9 542.85 495.55 547.8L493.07 549.12L445.88 523.65L526.54 480.19V496.32ZM526.54 433.23L402.44 500.19L278.3 433.05V269.56H526.54V433.24V433.23ZM539.4 528.13C545.56 528.13 550.53 533.11 550.53 539.26C550.53 545.41 545.55 550.39 539.4 550.39C533.25 550.39 528.29 545.4 528.29 539.26C528.29 533.12 533.27 528.13 539.4 528.13Z" fill="white"/>
</svg>
