<?xml version="1.0" encoding="UTF-8" standalone="no"?>
<!DOCTYPE svg PUBLIC "-//W3C//DTD SVG 1.1//EN" "http://www.w3.org/Graphics/SVG/1.1/DTD/svg11.dtd">
<!-- Created with Vectornator (http://vectornator.io/) -->
<svg height="100%" stroke-miterlimit="10" style="fill-rule:nonzero;clip-rule:evenodd;stroke-linecap:round;stroke-linejoin:round;" version="1.1" viewBox="0 0 1024 1024" width="100%" xml:space="preserve" xmlns="http://www.w3.org/2000/svg" xmlns:vectornator="http://vectornator.io" xmlns:xlink="http://www.w3.org/1999/xlink">
<defs/>
<clipPath id="ArtboardFrame">
<rect height="1024" width="1024" x="0" y="0"/>
</clipPath>
<g clip-path="url(#ArtboardFrame)" id="Layer-1" vectornator:layerName="Layer 1">
<path d="M260.228 1.98322L763.772 1.98322C906.94 1.98322 1023 116.894 1023 258.644L1023 767.322C1023 909.072 906.94 1023.98 763.772 1023.98L260.228 1023.98C117.06 1023.98 1 909.072 1 767.322L1 258.644C1 116.894 117.06 1.98322 260.228 1.98322Z" fill="#000000" fill-rule="evenodd" opacity="1" stroke="#7a7a7a" stroke-linecap="round" stroke-linejoin="round" stroke-width="1"/>
</g>
<g id="Layer-2" vectornator:layerName="Layer 2">
<g opacity="1">
<path d="M541.236 886.902C514.419 886.902 490.686 881.673 470.037 871.214C449.388 860.755 433.163 845.335 421.364 824.955C409.564 804.574 403.665 780.17 403.665 751.744C403.665 744.772 403.933 737.665 404.469 730.425C405.005 723.184 405.81 715.809 406.883 708.301C362.903 710.982 322.141 705.887 284.597 693.015C247.053 680.143 214.336 660.969 186.447 635.492C158.557 610.016 136.835 579.177 121.281 542.974C105.728 506.771 97.9506 466.947 97.9506 423.504C97.9506 383.815 104.655 346.673 118.063 312.079C131.472 277.485 150.78 247.048 175.988 220.767C201.196 194.487 231.633 173.972 267.3 159.222C302.967 144.473 342.522 137.098 385.965 137.098C429.409 137.098 468.83 144.339 504.228 158.82C539.627 173.301 569.93 193.548 595.138 219.56C620.346 245.573 639.788 275.474 653.465 309.263C667.142 343.053 673.98 379.524 673.98 418.677L673.98 742.894C673.98 771.857 668.617 797.199 657.89 818.921C647.163 840.643 632.011 857.403 612.435 869.203C592.859 881.002 569.126 886.902 541.236 886.902ZM536.409 817.714C554.108 817.714 568.589 811.412 579.852 798.808C591.116 786.204 596.747 768.102 596.747 744.504L596.747 553.03C569.394 570.729 547.672 588.697 531.582 606.932C515.492 625.168 503.558 642.867 495.781 660.03C488.004 677.193 482.909 693.015 480.495 707.496C478.082 721.977 476.875 734.045 476.875 743.699C476.875 759.253 479.691 772.527 485.322 783.522C490.954 794.517 498.329 802.965 507.446 808.864C516.564 814.764 526.218 817.714 536.409 817.714ZM385.965 642.331C394.547 642.331 402.592 641.928 410.101 641.124C417.609 640.319 425.655 638.844 434.236 636.699C441.745 618.464 452.337 599.96 466.014 581.188C479.691 562.416 497.122 543.778 518.307 525.274C539.493 506.771 565.639 489.474 596.747 473.383L596.747 418.677C596.747 388.105 591.518 359.813 581.059 333.801C570.6 307.788 555.851 285.262 536.811 266.222C517.771 247.182 495.379 232.164 469.634 221.169C443.89 210.174 416 204.677 385.965 204.677C355.394 204.677 327.37 210.174 301.894 221.169C276.418 232.164 254.16 247.584 235.12 267.429C216.08 287.273 201.33 310.47 190.872 337.019C180.413 363.568 175.184 392.396 175.184 423.504C175.184 454.612 180.413 483.44 190.872 509.989C201.33 536.538 216.08 559.734 235.12 579.579C254.16 599.423 276.418 614.843 301.894 625.838C327.37 636.833 355.394 642.331 385.965 642.331Z" fill="#ffffff" fill-rule="evenodd" opacity="1" stroke="none"/>
<path d="M724.922 817.684L724.922 670.86L724.922 524.037C724.922 505.802 726.368 459.738 728.851 445.729C731.335 431.721 729.223 436.607 739.547 426.282C749.872 415.958 761.348 415.575 779.022 413.395C797.748 411.086 823.34 407.383 841.576 407.383L883.813 407.383L926.049 407.383L926.049 439.161L926.049 470.94L890.651 470.94L855.252 470.94C846.403 470.94 837.107 471.524 828.783 473.381C820.458 475.239 813.107 478.371 808.145 483.466C803.184 488.561 800.882 495.352 799.82 503.148C798.758 510.945 798.937 519.747 798.937 528.864L798.937 673.274L798.937 817.684L761.929 817.684L724.922 817.684Z" fill="#ffffff" fill-rule="evenodd" opacity="1" stroke="none"/>
<path d="M595.054 474.31C644.589 448.133 664.093 438.066 719.1 423.361C744.806 416.489 768.002 413.64 791.658 410.704C801.636 409.466 886.078 402.299 896.842 413.296C903.932 420.538 904.158 464.472 895.624 469.482C889.601 473.019 833.804 467.809 816.782 468.897C800.299 469.951 775.404 474.207 742.846 481.364C735.195 483.045 700.644 492.796 687.199 500.317C649.356 521.489 635.218 528.401 597.6 550.047" fill="#ffffff" fill-rule="evenodd" opacity="1" stroke="none"/>
</g>
</g>
</svg>
